<svg xmlns="http://www.w3.org/2000/svg" width="100.126" height="100.126" viewBox="0 0 100.126 100.126">
  <g id="Group_11" data-name="Group 11" transform="translate(-129.656 -28.309)">
    <path id="Path_207" data-name="Path 207" d="M50.063,6.47A43.607,43.607,0,0,0,33.1,90.233,43.606,43.606,0,0,0,67.03,9.893,43.314,43.314,0,0,0,50.063,6.47m0-6.47A50.063,50.063,0,1,1,0,50.063,50.063,50.063,0,0,1,50.063,0Z" transform="translate(129.656 28.309)" fill="#fff"/>
    <g id="description_black_24dp" transform="translate(147.576 45.583)">
      <path id="Path_207-2" data-name="Path 207" d="M0,0H65.577V65.577H0Z" fill="none"/>
      <path id="Path_208" data-name="Path 208" d="M14.929,40.253H36.788v5.465H14.929Zm0-10.929H36.788v5.465H14.929ZM31.324,2H9.465A5.481,5.481,0,0,0,4,7.465V51.183a5.457,5.457,0,0,0,5.437,5.465H42.253a5.481,5.481,0,0,0,5.465-5.465V18.394Zm10.93,49.183H9.465V7.465H28.591V21.127H42.253Z" transform="translate(6.93 3.465)" fill="#fff"/>
    </g>
  </g>
</svg>
