<svg xmlns="http://www.w3.org/2000/svg" width="100.126" height="100.126" viewBox="0 0 100.126 100.126">
  <g id="Group_12" data-name="Group 12" transform="translate(-129.548 -27.728)">
    <path id="Path_207" data-name="Path 207" d="M50.063,6.47A43.607,43.607,0,0,0,33.1,90.233,43.606,43.606,0,0,0,67.03,9.893,43.314,43.314,0,0,0,50.063,6.47m0-6.47A50.063,50.063,0,1,1,0,50.063,50.063,50.063,0,0,1,50.063,0Z" transform="translate(129.548 27.728)" fill="#fff"/>
    <g id="lightbulb_black_24dp" transform="translate(148.926 47.107)">
      <path id="Path_209" data-name="Path 209" d="M0,0H61.37V61.37H0Z" fill="none"/>
      <path id="Path_210" data-name="Path 210" d="M15.228,50.585a2.565,2.565,0,0,0,2.557,2.557H28.014a2.565,2.565,0,0,0,2.557-2.557V48.027H15.228ZM22.9,2A17.892,17.892,0,0,0,12.671,34.577v5.779a2.565,2.565,0,0,0,2.557,2.557H30.571a2.565,2.565,0,0,0,2.557-2.557V34.577A17.892,17.892,0,0,0,22.9,2Zm7.288,28.384-2.174,1.534V37.8H17.785V31.918l-2.174-1.534a12.785,12.785,0,1,1,14.575,0Z" transform="translate(7.785 3.114)" fill="#fff"/>
    </g>
  </g>
</svg>
