<svg xmlns="http://www.w3.org/2000/svg" width="100.126" height="100.126" viewBox="0 0 100.126 100.126">
  <g id="Group_10" data-name="Group 10" transform="translate(-129.547 -28.309)">
    <g id="work_black_24dp" transform="translate(145.525 44.286)">
      <path id="Path_205" data-name="Path 205" d="M0,0H67.284V67.284H0Z" transform="translate(0)" fill="rgba(0,0,0,0)"/>
      <path id="Path_206" data-name="Path 206" d="M52.463,13.214H41.249V7.607A5.588,5.588,0,0,0,35.642,2H24.428a5.588,5.588,0,0,0-5.607,5.607v5.607H7.607a5.564,5.564,0,0,0-5.579,5.607L2,49.659a5.588,5.588,0,0,0,5.607,5.607H52.463a5.588,5.588,0,0,0,5.607-5.607V18.821A5.588,5.588,0,0,0,52.463,13.214Zm-16.821,0H24.428V7.607H35.642Z" transform="translate(3.607 3.607)" fill="#fff"/>
    </g>
    <path id="Path_207" data-name="Path 207" d="M50.063,6.47A43.607,43.607,0,0,0,33.1,90.233,43.606,43.606,0,0,0,67.03,9.893,43.314,43.314,0,0,0,50.063,6.47m0-6.47A50.063,50.063,0,1,1,0,50.063,50.063,50.063,0,0,1,50.063,0Z" transform="translate(129.547 28.309)" fill="#fff"/>
  </g>
</svg>
